<svg width="33" height="29" viewBox="0 0 33 29" fill="none" xmlns="http://www.w3.org/2000/svg">
<path d="M32.6284 24.9226C33.6858 26.7348 32.3585 29 30.2463 29H2.75287C0.636684 29 -0.684577 26.7313 0.37085 24.9226L14.1178 1.35852C15.1758 -0.454488 17.8257 -0.451203 18.8818 1.35852L32.6284 24.9226ZM16.4998 20.0508C15.0443 20.0508 13.8644 21.2173 13.8644 22.6562C13.8644 24.0952 15.0443 25.2617 16.4998 25.2617C17.9553 25.2617 19.1352 24.0952 19.1352 22.6562C19.1352 21.2173 17.9553 20.0508 16.4998 20.0508ZM13.9977 10.6855L14.4227 18.3886C14.4425 18.7491 14.744 19.0312 15.1091 19.0312H17.8904C18.2555 19.0312 18.557 18.7491 18.5769 18.3886L19.0019 10.6855C19.0234 10.2961 18.7098 9.96875 18.3154 9.96875H14.6841C14.2897 9.96875 13.9762 10.2961 13.9977 10.6855Z" fill="#E43A2F"/>
</svg>
