<svg width="38" height="38" viewBox="0 0 38 38" fill="none" xmlns="http://www.w3.org/2000/svg">
<g clip-path="url(#clip0)">
<g filter="url(#filter0_d)">
<path d="M19 0.59375C8.83203 0.59375 0.59375 8.83203 0.59375 19C0.59375 29.168 8.83203 37.4062 19 37.4062C29.168 37.4062 37.4062 29.168 37.4062 19C37.4062 8.83203 29.168 0.59375 19 0.59375ZM25.8645 23.8242L24.3801 25.6797C24.2827 25.8015 24.1623 25.9029 24.0257 25.9781C23.889 26.0534 23.739 26.101 23.584 26.1182C23.429 26.1354 23.2721 26.1219 23.1223 26.0785C22.9725 26.0351 22.8327 25.9627 22.7109 25.8652L17.7383 22.1751C17.3908 21.8969 17.1104 21.5441 16.9177 21.1429C16.725 20.7417 16.6249 20.3023 16.625 19.8572V8.3125C16.625 7.99756 16.7501 7.69551 16.9728 7.47281C17.1955 7.25011 17.4976 7.125 17.8125 7.125H20.1875C20.5024 7.125 20.8045 7.25011 21.0272 7.47281C21.2499 7.69551 21.375 7.99756 21.375 8.3125V19L25.6797 22.1543C25.8015 22.2518 25.903 22.3723 25.9782 22.509C26.0534 22.6457 26.101 22.7959 26.1182 22.951C26.1353 23.106 26.1218 23.263 26.0782 23.4128C26.0347 23.5627 25.9621 23.7025 25.8645 23.8242Z" fill="#373737"/>
</g>
</g>
<defs>
<filter id="filter0_d" x="-3.40625" y="0.59375" width="44.8125" height="44.8125" filterUnits="userSpaceOnUse" color-interpolation-filters="sRGB">
<feFlood flood-opacity="0" result="BackgroundImageFix"/>
<feColorMatrix in="SourceAlpha" type="matrix" values="0 0 0 0 0 0 0 0 0 0 0 0 0 0 0 0 0 0 127 0"/>
<feOffset dy="4"/>
<feGaussianBlur stdDeviation="2"/>
<feColorMatrix type="matrix" values="0 0 0 0 0 0 0 0 0 0 0 0 0 0 0 0 0 0 0.25 0"/>
<feBlend mode="normal" in2="BackgroundImageFix" result="effect1_dropShadow"/>
<feBlend mode="normal" in="SourceGraphic" in2="effect1_dropShadow" result="shape"/>
</filter>
<clipPath id="clip0">
<rect width="38" height="38" fill="white"/>
</clipPath>
</defs>
</svg>
