<svg xmlns="http://www.w3.org/2000/svg" viewBox="0 0 158 224"><defs><style>.cls-1{fill:#fcbf29;}</style></defs><g id="Layer_1" data-name="Layer 1"><ellipse cx="79" cy="81" rx="79" ry="81"/><path d="M48,97a99.54,99.54,0,0,0,1,12,116.33,116.33,0,0,0,4,17c9,27.82,40,70,40,70,8.7,11.86,20.1,26.89,34,44,14.89-17.63,26.54-33.16,35-45,0,0,25.55-35.78,37-65a98.27,98.27,0,0,0,6-22,94.7,94.7,0,0,0,1-11Z" transform="translate(-48 -16)"/></g><g id="Layer_3" data-name="Layer 3"><path class="cls-1" d="M127,48a144.07,144.07,0,0,1-21,10,145.41,145.41,0,0,1-20,6V97a50.39,50.39,0,0,0,0,7,54.86,54.86,0,0,0,8,24c10.82,16.84,29.69,21.27,33,22,3.31-.73,22.18-5.16,33-22a54.86,54.86,0,0,0,8-24,50.39,50.39,0,0,0,0-7V64a145.41,145.41,0,0,1-20-6A144.07,144.07,0,0,1,127,48Z" transform="translate(-48 -16)"/></g></svg>