<svg width="136" height="118" viewBox="0 0 136 118" fill="none" xmlns="http://www.w3.org/2000/svg">
<path d="M76.4503 104.153C72.5381 110.27 63.6163 110.31 59.6498 104.228L19.203 42.2097C14.8759 35.5748 19.6134 26.7824 27.5345 26.7471L107.874 26.3891C115.795 26.3538 120.611 35.1037 116.343 41.7768L76.4503 104.153Z" fill="#FCBF29"/>
<path d="M92.4905 55.8806C87.5961 46.5366 78.4685 40.2916 68.0683 40.2916C65.5971 40.2916 63.1983 40.645 60.9111 41.3081L56.3303 34.2603C55.6705 33.2 54.3716 32.9419 53.429 33.6841L52.2906 34.5804C51.3479 35.3227 51.1186 36.7841 51.7785 37.8447L55.5225 43.5473C50.833 46.1246 46.5603 50.3192 43.6484 55.8757C43.6475 55.8773 43.6464 55.8789 43.6454 55.8806C42.8846 57.3332 42.8673 59.1548 43.6454 60.6402C46.9874 67.0203 52.3036 71.9549 58.6505 74.4439L47.8701 57.118C48.5999 55.8735 49.4215 54.7004 50.3261 53.6109L60.6907 70.2692H60.6916L64.2185 75.9371C66.4903 76.2835 68.7909 76.3219 71.0709 76.0514L54.5796 49.5474C55.6499 48.7456 56.7755 48.0414 57.9457 47.4417L79.8064 82.2605C80.4662 83.3208 81.7651 83.5788 82.7077 82.8367L83.8461 81.9404C84.7888 81.1981 85.0181 79.7366 84.3582 78.6761L80.6152 72.9752L80.6146 72.9743C85.5764 70.2421 89.7148 65.9392 92.4904 60.6402C92.8687 59.9194 93.0683 59.0975 93.0683 58.2604C93.0683 57.4233 92.8688 56.6015 92.4905 55.8806V55.8806ZM76.9247 67.0436L75.2697 64.3844C77.4122 61.204 77.6752 56.928 76.0336 53.4781V53.481C76.0336 55.7906 74.3695 57.6627 72.3166 57.6627C70.2482 57.6627 68.5995 55.7731 68.5995 53.481C68.5995 51.1715 70.2636 49.2994 72.3166 49.2994H72.3192C70.1707 48.0055 67.6732 47.7718 65.4173 48.5494L63.7621 45.8895C65.0959 45.3019 66.5482 44.9791 68.0683 44.9791C74.5928 44.9791 79.8738 50.9191 79.8738 58.2603C79.8738 61.6299 78.7599 64.7032 76.9247 67.0436Z" fill="black"/>
</svg>
